<svg width="160" height="31" xmlns="http://www.w3.org/2000/svg"><g fill-rule="nonzero" fill="none"><path d="M48.91 25.291c3.442 0 5.48-2.645 5.48-7.176v-.013c0-4.569-2.025-7.176-5.493-7.176-1.962 0-3.468 1.025-4.164 2.734h-.088V6.737h-4.493V25h4.493v-2.354h.088c.671 1.645 2.177 2.645 4.177 2.645Zm-1.658-3.645c-1.57 0-2.607-1.341-2.607-3.531v-.013c0-2.19 1.05-3.518 2.607-3.518 1.57 0 2.594 1.316 2.594 3.518v.013c0 2.177-1.012 3.531-2.594 3.531ZM60.692 25V6.737H56.2V25h4.493Zm8.86.291c4.341 0 7.05-2.62 7.05-7.176v-.025c0-4.493-2.76-7.164-7.05-7.164-4.278 0-7.05 2.696-7.05 7.164v.025c0 4.544 2.684 7.176 7.05 7.176Zm.013-3.404c-1.557 0-2.506-1.342-2.506-3.772v-.025c0-2.38.974-3.76 2.493-3.76s2.506 1.38 2.506 3.76v.025c0 2.417-.962 3.772-2.493 3.772ZM84.93 25.29c3.974 0 6.39-2.405 6.48-5.607v-.088h-4.114l-.025.126c-.177 1.317-.975 2.165-2.29 2.165-1.596 0-2.507-1.342-2.507-3.772v-.013c0-2.392.937-3.771 2.494-3.771 1.316 0 2.126.886 2.303 2.164l.013.127h4.126l-.013-.089c-.063-3.278-2.62-5.607-6.505-5.607-4.29 0-6.974 2.721-6.974 7.164v.012c0 4.468 2.67 7.19 7.012 7.19ZM97.636 25v-4.24l.81-.974L101.8 25h5.164l-5.151-7.885 4.86-5.898h-5l-3.948 5.227h-.089V6.737h-4.48V25h4.48Z" fill="#444"/><path d="M112.28 25V6.737h-4.493V25h4.493Zm8.86.291c4.34 0 7.049-2.62 7.049-7.176v-.025c0-4.493-2.76-7.164-7.05-7.164-4.278 0-7.05 2.696-7.05 7.164v.025c0 4.544 2.684 7.176 7.05 7.176Zm.012-3.404c-1.557 0-2.506-1.342-2.506-3.772v-.025c0-2.38.974-3.76 2.493-3.76s2.506 1.38 2.506 3.76v.025c0 2.417-.962 3.772-2.493 3.772Zm15.402 3.404c4.341 0 7.05-2.62 7.05-7.176v-.025c0-4.493-2.76-7.164-7.05-7.164-4.277 0-7.05 2.696-7.05 7.164v.025c0 4.544 2.684 7.176 7.05 7.176Zm.013-3.404c-1.557 0-2.506-1.342-2.506-3.772v-.025c0-2.38.975-3.76 2.493-3.76 1.52 0 2.506 1.38 2.506 3.76v.025c0 2.417-.962 3.772-2.493 3.772ZM149.919 25v-4.24l.81-.974L154.083 25h5.164l-5.151-7.885 4.86-5.898h-5l-3.948 5.227h-.089V6.737h-4.48V25h4.48Z" fill="#15B38F"/><g fill="#15B38F"><path d="M25.38 12.384V4.128L16.92 0 8.46 4.128v8.256L0 16.512v10.32l8.46 4.128 8.46-4.128 8.46 4.128 8.46-4.128v-10.32l-8.46-4.128ZM17.11 2.312l6.155 2.972-5.499 2.683-6.155-2.972 5.5-2.683Zm-6.535 3.426 6.345 3.096v7.43l-6.345-3.096v-7.43ZM8.46 28.648l-6.345-3.096v-7.43l6.345 3.096v7.43Zm.592-8.256L2.961 17.38l5.499-2.683 6.091 2.972-5.499 2.724Zm16.328 8.256-6.345-3.096v-7.43l6.345 3.096v7.43Zm.592-8.256-6.091-3.013 5.499-2.683 6.091 2.972-5.499 2.724Z"/></g></g></svg>